/* XPM */
static char *megacoin___[] = {
"32 32 580 2",
"  	c None",
". 	c #C5C6C6",
"+ 	c #CACACB",
"@ 	c #CFCFD0",
"# 	c #D2D3D3",
"$ 	c #D2D2D3",
"% 	c #D0D0D1",
"& 	c #D1D2D2",
"* 	c #D8D8D9",
"= 	c #DEDEDF",
"- 	c #E3E3E4",
"; 	c #EAEBEB",
"> 	c #F1F1F1",
", 	c #F5F6F6",
"' 	c #F8F8F8",
") 	c #D7D8DA",
"! 	c #D3D3D5",
"~ 	c #D1D2D3",
"{ 	c #D0D1D2",
"] 	c #CBCCCD",
"^ 	c #C6C7C8",
"/ 	c #C8C8C9",
"( 	c #DDDDDE",
"_ 	c #ECECEC",
": 	c #F9F9F9",
"< 	c #FFFFFF",
"[ 	c #FDFDFD",
"} 	c #FAFAFA",
"| 	c #E1E2E3",
"1 	c #D7D9DA",
"2 	c #D3D4D6",
"3 	c #C7C9CA",
"4 	c #B0B0B2",
"5 	c #979898",
"6 	c #89898A",
"7 	c #828383",
"8 	c #878888",
"9 	c #909090",
"0 	c #9D9D9D",
"a 	c #B1B1B2",
"b 	c #CFCFCF",
"c 	c #EFEFF0",
"d 	c #FCFCFC",
"e 	c #E2E3E5",
"f 	c #DCDDDF",
"g 	c #B3B4B5",
"h 	c #888989",
"i 	c #767677",
"j 	c #747575",
"k 	c #78797A",
"l 	c #7D7D7E",
"m 	c #828283",
"n 	c #888888",
"o 	c #8C8D8D",
"p 	c #919192",
"q 	c #949495",
"r 	c #A5A5A6",
"s 	c #C9C9CA",
"t 	c #F5F5F6",
"u 	c #FDFDFE",
"v 	c #E6E7E9",
"w 	c #E7E8EA",
"x 	c #DDDEE1",
"y 	c #9FA0A1",
"z 	c #797A7B",
"A 	c #767777",
"B 	c #777878",
"C 	c #787979",
"D 	c #7A7B7C",
"E 	c #7E7F80",
"F 	c #838485",
"G 	c #898A8B",
"H 	c #8F9091",
"I 	c #959697",
"J 	c #9C9D9E",
"K 	c #A0A1A2",
"L 	c #9B9C9E",
"M 	c #ADAEAF",
"N 	c #E7E7E8",
"O 	c #FBFCFD",
"P 	c #F0F0F1",
"Q 	c #EEEFF0",
"R 	c #F3F4F6",
"S 	c #E8EAEB",
"T 	c #9B9C9D",
"U 	c #808182",
"V 	c #808181",
"W 	c #7B7B7C",
"X 	c #7D7E7F",
"Y 	c #828384",
"Z 	c #898A8A",
"` 	c #909192",
" .	c #969798",
"..	c #A1A2A3",
"+.	c #A6A7A8",
"@.	c #A4A5A7",
"#.	c #9FA1A2",
"$.	c #A4A5A6",
"%.	c #E0E1E2",
"&.	c #DDDFE0",
"*.	c #B4B6B7",
"=.	c #EFF0F1",
"-.	c #F8F8FA",
";.	c #F8F8F9",
">.	c #A7A7A8",
",.	c #8D9697",
"'.	c #8D9B9C",
").	c #859293",
"!.	c #7C8A8B",
"~.	c #7A7C7C",
"{.	c #787879",
"].	c #79797A",
"^.	c #798384",
"/.	c #7E8B8C",
"(.	c #879596",
"_.	c #909D9E",
":.	c #9A9C9D",
"<.	c #A0A1A3",
"[.	c #A1A2A2",
"}.	c #9EA9AB",
"|.	c #A3B0B2",
"1.	c #A5B2B3",
"2.	c #9BA6A7",
"3.	c #959596",
"4.	c #B4B5B6",
"5.	c #939496",
"6.	c #F5F6F7",
"7.	c #C1C1C2",
"8.	c #96A4A6",
"9.	c #AC7C7D",
"0.	c #BF2F2F",
"a.	c #B32C2D",
"b.	c #A83737",
"c.	c #7C8283",
"d.	c #797B7C",
"e.	c #748485",
"f.	c #965253",
"g.	c #B92929",
"h.	c #BD2B2B",
"i.	c #B04748",
"j.	c #97A4A5",
"k.	c #A3A4A5",
"l.	c #A1B1B3",
"m.	c #B15B5B",
"n.	c #BB3132",
"o.	c #BD3334",
"p.	c #A15353",
"q.	c #6A7A7B",
"r.	c #747475",
"s.	c #666768",
"t.	c #F9FBFC",
"u.	c #E6E6E7",
"v.	c #9FA2A4",
"w.	c #A8AEB0",
"x.	c #C91B1B",
"y.	c #CB0000",
"z.	c #C00000",
"A.	c #CC0000",
"B.	c #A05556",
"C.	c #758B8D",
"D.	c #7E7374",
"E.	c #BA0606",
"F.	c #BD0000",
"G.	c #C90000",
"H.	c #A6797A",
"I.	c #A1B7B8",
"J.	c #AB9091",
"K.	c #C70000",
"L.	c #C10000",
"M.	c #B40000",
"N.	c #BA0000",
"O.	c #685152",
"P.	c #4C5455",
"Q.	c #616162",
"R.	c #58595A",
"S.	c #545455",
"T.	c #DCDEE0",
"U.	c #F2F3F5",
"V.	c #B5B5B6",
"W.	c #9DADAF",
"X.	c #B46465",
"Y.	c #C60000",
"Z.	c #C50000",
"`.	c #CD0000",
" +	c #C30D0D",
".+	c #788586",
"++	c #A23434",
"@+	c #C40000",
"#+	c #BB2020",
"$+	c #9FB3B5",
"%+	c #B73233",
"&+	c #BE0000",
"*+	c #B70000",
"=+	c #C20000",
"-+	c #931718",
";+	c #394747",
">+	c #4A4B4C",
",+	c #565757",
"'+	c #505051",
")+	c #D5D7D9",
"!+	c #D6D7DA",
"~+	c #929394",
"{+	c #96A8AA",
"]+	c #B13D3E",
"^+	c #CE0000",
"/+	c #CF0000",
"(+	c #83797A",
"_+	c #B22222",
":+	c #CA0000",
"<+	c #BC0000",
"[+	c #CB0808",
"}+	c #A2A0A1",
"|+	c #B71718",
"1+	c #BB0000",
"2+	c #A30909",
"3+	c #383F40",
"4+	c #3F4041",
"5+	c #555556",
"6+	c #525354",
"7+	c #505152",
"8+	c #C2C3C5",
"9+	c #CECFD1",
"0+	c #B0B1B3",
"a+	c #7F7F81",
"b+	c #859798",
"c+	c #A73A3B",
"d+	c #C30000",
"e+	c #938D8E",
"f+	c #AF292A",
"g+	c #C40E0E",
"h+	c #919091",
"i+	c #AA1415",
"j+	c #B90000",
"k+	c #9C0B0B",
"l+	c #394142",
"m+	c #3C3D3D",
"n+	c #4F5051",
"o+	c #545556",
"p+	c #BEBFC1",
"q+	c #C5C7C9",
"r+	c #757677",
"s+	c #78898A",
"t+	c #9A3435",
"u+	c #B50000",
"v+	c #A19A9B",
"w+	c #AC3030",
"x+	c #B60000",
"y+	c #B10000",
"z+	c #AE0909",
"A+	c #575657",
"B+	c #9F0C0C",
"C+	c #AB0000",
"D+	c #B30000",
"E+	c #8F0C0C",
"F+	c #3C4344",
"G+	c #3E3F40",
"H+	c #4C4C4D",
"I+	c #606061",
"J+	c #5B5B5D",
"K+	c #C1C2C4",
"L+	c #C4C5C7",
"M+	c #8C8D8E",
"N+	c #747576",
"O+	c #738385",
"P+	c #973132",
"Q+	c #B80000",
"R+	c #877F81",
"S+	c #A0292A",
"T+	c #AF0000",
"U+	c #B00000",
"V+	c #A20404",
"W+	c #404040",
"X+	c #9B0C0C",
"Y+	c #A30000",
"Z+	c #AC0000",
"`+	c #930D0D",
" @	c #414849",
".@	c #444546",
"+@	c #4D4D4E",
"@@	c #696A6B",
"#@	c #656667",
"$@	c #CBCCCE",
"%@	c #CCCDCF",
"&@	c #8D8E8F",
"*@	c #768789",
"=@	c #9B3233",
"-@	c #787071",
";@	c #982223",
">@	c #B20000",
",@	c #A10606",
"'@	c #9C0E0E",
")@	c #990F0F",
"!@	c #4A5354",
"~@	c #4C4D4E",
"{@	c #525253",
"]@	c #737575",
"^@	c #D6D7D9",
"/@	c #DEE0E2",
"(@	c #9A9B9C",
"_@	c #7F9293",
":@	c #D50000",
"<@	c #968E8F",
"[@	c #AA2E2E",
"}@	c #BF0000",
"|@	c #B20A0A",
"1@	c #7B7C7D",
"2@	c #A71414",
"3@	c #AA1212",
"4@	c #596263",
"5@	c #565859",
"6@	c #5C5D5E",
"7@	c #878889",
"8@	c #858687",
"9@	c #DEDFE0",
"0@	c #F4F5F7",
"a@	c #B0B1B2",
"b@	c #8E8F91",
"c@	c #8FA2A4",
"d@	c #DE0000",
"e@	c #D10000",
"f@	c #918C8D",
"g@	c #B12C2C",
"h@	c #D20000",
"i@	c #C20C0C",
"j@	c #AC1B1B",
"k@	c #B31415",
"l@	c #697173",
"m@	c #636465",
"n@	c #6D6D6E",
"o@	c #9D9EA0",
"p@	c #D9D9DA",
"q@	c #CACBCC",
"r@	c #99999B",
"s@	c #9BAEB0",
"t@	c #B73E3E",
"u@	c #D60000",
"v@	c #C80000",
"w@	c #827C7D",
"x@	c #AC2424",
"y@	c #BB0707",
"z@	c #B11919",
"A@	c #B11313",
"B@	c #747D7E",
"C@	c #6D6E6F",
"D@	c #848586",
"E@	c #B6B7BA",
"F@	c #A6A8A9",
"G@	c #C1C1C1",
"H@	c #E5E5E6",
"I@	c #9BAAAB",
"J@	c #A34C4D",
"K@	c #B11111",
"L@	c #A41213",
"M@	c #A51414",
"N@	c #A91515",
"O@	c #A51111",
"P@	c #6A7071",
"Q@	c #892C2D",
"R@	c #AC0909",
"S@	c #A20C0C",
"T@	c #A60808",
"U@	c #9A0A0A",
"V@	c #901414",
"W@	c #717678",
"X@	c #922829",
"Y@	c #9E1616",
"Z@	c #A51515",
"`@	c #AA1818",
" #	c #AA1313",
".#	c #A1292A",
"+#	c #81898A",
"@#	c #ACADAF",
"##	c #CFD1D3",
"$#	c #B4B5B7",
"%#	c #EDEDEE",
"&#	c #F9F9FA",
"*#	c #A9AAAB",
"=#	c #919899",
"-#	c #997071",
";#	c #857A7B",
">#	c #876C6E",
",#	c #885758",
"'#	c #915253",
")#	c #785758",
"!#	c #844B4C",
"~#	c #7C4041",
"{#	c #4A5253",
"]#	c #683A3B",
"^#	c #444545",
"/#	c #573B3C",
"(#	c #813434",
"_#	c #755354",
":#	c #8A5050",
"<#	c #955859",
"[#	c #8C7677",
"}#	c #9A696A",
"|#	c #948182",
"1#	c #907C7D",
"2#	c #8E8D8E",
"3#	c #DBDCDE",
"4#	c #DFE1E2",
"5#	c #BABBBC",
"6#	c #FAFBFD",
"7#	c #CDCDCF",
"8#	c #B33030",
"9#	c #B32727",
"0#	c #B31F1F",
"a#	c #BC100F",
"b#	c #B21616",
"c#	c #8D2A2A",
"d#	c #961D1D",
"e#	c #971818",
"f#	c #733233",
"g#	c #BC0808",
"h#	c #7E2828",
"i#	c #881D1D",
"j#	c #682D2E",
"k#	c #8F1F1F",
"l#	c #942B2C",
"m#	c #8C3333",
"n#	c #B01E1E",
"o#	c #B31919",
"p#	c #B92828",
"q#	c #AE3B3B",
"r#	c #8A898A",
"s#	c #B9BABB",
"t#	c #F9FAFC",
"u#	c #9B9B9C",
"v#	c #E1E3E4",
"w#	c #E1E2E4",
"x#	c #97A2A4",
"y#	c #894445",
"z#	c #932727",
"A#	c #8A2E2F",
"B#	c #972121",
"C#	c #9F1717",
"D#	c #792526",
"E#	c #891C1C",
"F#	c #961414",
"G#	c #861919",
"H#	c #811A1A",
"I#	c #801717",
"J#	c #771919",
"K#	c #861F20",
"L#	c #781F1F",
"M#	c #8C2323",
"N#	c #8F2828",
"O#	c #8B2626",
"P#	c #8F3434",
"Q#	c #8F4646",
"R#	c #A01D1D",
"S#	c #949A9B",
"T#	c #ECEDEF",
"U#	c #D4D5D6",
"V#	c #D5D6D8",
"W#	c #BDBEC0",
"X#	c #747677",
"Y#	c #636A6B",
"Z#	c #626869",
"`#	c #5A5C5D",
" $	c #554F50",
".$	c #4B494A",
"+$	c #444243",
"@$	c #403D3E",
"#$	c #393B3B",
"$$	c #2D3C3D",
"%$	c #303535",
"&$	c #313132",
"*$	c #382D2D",
"=$	c #343A3A",
"-$	c #3F3B3C",
";$	c #4B4546",
">$	c #53595A",
",$	c #798080",
"'$	c #7E8182",
")$	c #FCFDFF",
"!$	c #E7E8E9",
"~$	c #97999A",
"{$	c #676868",
"]$	c #5A5B5C",
"^$	c #57595A",
"/$	c #525555",
"($	c #4D4F4F",
"_$	c #474949",
":$	c #414343",
"<$	c #3C3D3E",
"[$	c #383839",
"}$	c #343535",
"|$	c #303132",
"1$	c #2F3132",
"2$	c #333435",
"3$	c #3A3C3C",
"4$	c #444646",
"5$	c #515353",
"6$	c #616364",
"7$	c #C0C1C2",
"8$	c #F8F9FB",
"9$	c #F0F2F3",
"0$	c #CDCECE",
"a$	c #909191",
"b$	c #919294",
"c$	c #858586",
"d$	c #5F5F60",
"e$	c #4A4B4B",
"f$	c #474748",
"g$	c #434344",
"h$	c #3F3F40",
"i$	c #3B3C3C",
"j$	c #363737",
"k$	c #313233",
"l$	c #2E2F2F",
"m$	c #2D2E2F",
"n$	c #373838",
"o$	c #414142",
"p$	c #656566",
"q$	c #ACACAD",
"r$	c #EAEBEC",
"s$	c #D7D7D8",
"t$	c #9E9FA0",
"u$	c #98999A",
"v$	c #7B7C7E",
"w$	c #656666",
"x$	c #4D4E4F",
"y$	c #424243",
"z$	c #3D3E3F",
"A$	c #3B3C3D",
"B$	c #38393A",
"C$	c #343536",
"D$	c #2E2F30",
"E$	c #303031",
"F$	c #363637",
"G$	c #646465",
"H$	c #E6E6E8",
"I$	c #AEAFB0",
"J$	c #A7A8A9",
"K$	c #77787A",
"L$	c #68696A",
"M$	c #434444",
"N$	c #3D3D3E",
"O$	c #353637",
"P$	c #363738",
"Q$	c #4F4F51",
"R$	c #686A6B",
"S$	c #888A8B",
"T$	c #BFBFC0",
"U$	c #B8B8B8",
"V$	c #BDBEBE",
"W$	c #BABABB",
"X$	c #A9A9AA",
"Y$	c #67686A",
"Z$	c #5D5F60",
"`$	c #535455",
" %	c #505153",
".%	c #545557",
"+%	c #5B5C5F",
"@%	c #656668",
"#%	c #727475",
"$%	c #818384",
"%%	c #8B8C8D",
"&%	c #8B8B8C",
"*%	c #BBBCBC",
"=%	c #B4B4B5",
"-%	c #A9AAAA",
";%	c #98989A",
">%	c #848587",
",%	c #767779",
"'%	c #6C6D6F",
")%	c #646668",
"!%	c #5F6062",
"~%	c #555758",
"{%	c #5E5F60",
"]%	c #676869",
"^%	c #6E6F6F",
"/%	c #A0A1A1",
"(%	c #777879",
"_%	c #646566",
":%	c #606162",
"<%	c #6B6B6C",
"[%	c #848484",
"}%	c #818182",
"                            . + @ #                             ",
"                      $ % & * = - ; > , '                       ",
"                  ) ! ~ { ] ^ / % ( _ : < [ }                   ",
"              | 1 2 3 4 5 6 7 7 8 9 0 a b c < d :               ",
"            e f ) g h i j k l m n o p q 5 r s t u '             ",
"          v w x y z A B C D E F G H I J K K L M N O P           ",
"        Q R S T U V W C k z X Y Z `  .T ..+.@.#.$.%.&.*.        ",
"      =.-.;.>.,.'.).!.~.{.].^./.(._.:.<.[.}.|.1.2.3.4.5.X       ",
"      6.< 7.8.9.0.a.b.c.d.e.f.g.h.i.j.k.l.m.n.o.p.q.r.X s.      ",
"    v t.u.v.w.x.y.z.A.B.C.D.E.F.G.G.H.I.J.K.L.M.N.O.P.Q.R.S.    ",
"    T.U.V.W.X.y.Y.Z.`. +.+++Y.F.L.@+#+$+%+G.&+*+=+-+;+>+,+'+    ",
"    )+!+~+{+]+^+^+A./+Y.(+_+:+<+L.^+[+}+|+=+@+<+1+2+3+4+5+6+7+  ",
"  8+9+0+a+b+c+A.d+Z.`.d+e+f+@+F.&+Z.g+h+i+F.j+1+1+k+l+m+n+R.o+  ",
"  p+q+ .r+s+t+<+u+M.N.j+v+w+x+M.y+M.z+A+B+u+C+D+D+E+F+G+H+I+J+  ",
"  K+L+M+N+O+P+Q+y+y+x+D+R+S+y+T+U+y+V+W+X+U+Y+Z+y+`+ @.@+@@@#@  ",
"  $@%@&@k *@=@z.Q+M.u+y+-@;@M.D+>@M.,@'+'@T+Y+C+D+)@!@~@{@r+]@  ",
"  ^@/@(@U _@b.:@Z.z.1+M.<@[@j+u+}@Z.|@1@2@*+U+>@1+3@4@5@6@7@8@].",
"  9@0@a@b@c@]+d@e@:+@+j+f@g@=+j+Y.h@i@(@j@&+}@j+F.k@l@m@n@o@I   ",
"  p@< q@r@s@t@u@v@v@Y.F.w@x@^+d+v@v@y@H z@&+L.z.}@A@B@C@D@E@F@  ",
"  G@< H@T I@J@K@L@M@N@O@P@Q@R@S@T@U@V@W@X@Y@Z@`@ #.#+#k @###$#  ",
"    %#&#*#=#-#;#>#,#'#)#!#~#{#]#^#/#(#_#:#<#[#}#|#1#2#&@3#4#5#  ",
"    ] 6#7#_@8#9#0#a#b#c#d#e#f#g#h#i#j#k#l#m#n#o#p#q#r#s#t#e     ",
"    u#v#w#x#y#z#A#B#C#D#E#F#G#H#I#J#K#L#M#N#O#P#Q#R#S#T#t#U#    ",
"      4.V#W#X#Y#Z#`# $.$+$@$#$$$%$&$*$=$-$;$>$#@,$'$U#)$!$      ",
"      8 a@M ~${$]$^$/$($_$:$<$[$}$|$1$2$3$4$5$6$j 7$8$9$0$      ",
"        a$(@b$c$d$+@e$f$g$h$i$j$k$l$m$&$n$o$H+p$q$r$U.s$        ",
"          t$u$8@v$w$x$y$z$A$B$C$|$D$m$E$F$.@G$(@] H$s$          ",
"            I$J$M+K$L$]$x$M$N$[$O$C$P$G+Q$R$S$*#T$U$            ",
"              V$W$X$b@K$Y$Z$^$`$7+ %.%+%@%#%$%%%&%              ",
"                  *%=%-%;%>%,%'%)%!%^$~%{%]%^%                  ",
"                      /%u#~+8@(%C@_%:%_%<%                      ",
"                              [%}%                              "};
