/* XPM */
static char *megacoin___[] = {
"16 16 174 2",
"  	c None",
". 	c #D7D8D8",
"+ 	c #DEDFE0",
"@ 	c #EAEBEC",
"# 	c #FDFDFE",
"$ 	c #D1D2D3",
"% 	c #BFC0C0",
"& 	c #BABABB",
"* 	c #C7C7C8",
"= 	c #E1E1E1",
"- 	c #FAFAFA",
"; 	c #FFFFFF",
"> 	c #E8EAEC",
", 	c #C0C1C3",
"' 	c #888989",
") 	c #767777",
"! 	c #7A7A7B",
"~ 	c #848485",
"{ 	c #929393",
"] 	c #ACACAD",
"^ 	c #DCDCDD",
"/ 	c #FEFEFF",
"( 	c #FAF9FB",
"_ 	c #C9CED0",
": 	c #7E8C8D",
"< 	c #737E7F",
"[ 	c #777879",
"} 	c #7B8889",
"| 	c #8A9899",
"1 	c #9B9D9E",
"2 	c #9EA8A9",
"3 	c #9BA9AA",
"4 	c #C5CCCD",
"5 	c #BDBDBE",
"6 	c #E8EEEF",
"7 	c #A38C8D",
"8 	c #BB2828",
"9 	c #9F4747",
"0 	c #748586",
"a 	c #A72F30",
"b 	c #B72E2E",
"c 	c #9EA9AA",
"d 	c #B1696A",
"e 	c #BC2D2D",
"f 	c #7D5A5B",
"g 	c #6A7273",
"h 	c #5D5E5E",
"i 	c #E4E5E7",
"j 	c #B0C1C3",
"k 	c #B54040",
"l 	c #D10000",
"m 	c #C80505",
"n 	c #965354",
"o 	c #C50000",
"p 	c #CA0000",
"q 	c #B36768",
"r 	c #BF1616",
"s 	c #C60000",
"t 	c #930F0F",
"u 	c #3E4B4C",
"v 	c #535354",
"w 	c #BEBFC1",
"x 	c #7E8E90",
"y 	c #A72D2D",
"z 	c #C30000",
"A 	c #C00707",
"B 	c #A75354",
"C 	c #BB0000",
"D 	c #C00000",
"E 	c #993B3C",
"F 	c #AB0C0C",
"G 	c #BD0000",
"H 	c #930D0D",
"I 	c #384344",
"J 	c #565758",
"K 	c #B6B7B9",
"L 	c #6F7F80",
"M 	c #9E2A2B",
"N 	c #B70000",
"O 	c #B00606",
"P 	c #944A4B",
"Q 	c #B10000",
"R 	c #B60000",
"S 	c #742424",
"T 	c #9C0909",
"U 	c #AE0000",
"V 	c #921212",
"W 	c #404C4C",
"X 	c #656566",
"Y 	c #6C6D6E",
"Z 	c #D3D4D6",
"` 	c #D4D6D7",
" .	c #849799",
"..	c #B93030",
"+.	c #D30000",
"@.	c #BC0404",
"#.	c #A25152",
"$.	c #CD0000",
"%.	c #A4494A",
"&.	c #B10F0F",
"*.	c #BE0000",
"=.	c #A91617",
"-.	c #586465",
";.	c #848586",
">.	c #8E8F91",
",.	c #EFEFF0",
"'.	c #A5B3B4",
").	c #AC4646",
"!.	c #B41516",
"~.	c #AD1819",
"{.	c #8A4C4C",
"].	c #AB0D0D",
"^.	c #AA0B0B",
"/.	c #924C4C",
"(.	c #A42424",
"_.	c #B31819",
":.	c #A23232",
"<.	c #798485",
"[.	c #B7B8BA",
"}.	c #E1E2E3",
"|.	c #BFC7C8",
"1.	c #965050",
"2.	c #A23434",
"3.	c #993030",
"4.	c #892E2E",
"5.	c #7E2B2C",
"6.	c #742828",
"7.	c #812E2E",
"8.	c #963D3D",
"9.	c #A53E3F",
"0.	c #994F50",
"a.	c #AFB4B5",
"b.	c #E6E8E9",
"c.	c #C9CCCE",
"d.	c #826566",
"e.	c #724343",
"f.	c #6A3A3A",
"g.	c #603031",
"h.	c #582B2C",
"i.	c #502727",
"j.	c #502929",
"k.	c #603434",
"l.	c #6F4748",
"m.	c #906B6C",
"n.	c #EAEDEE",
"o.	c #A0A0A1",
"p.	c #8E9495",
"q.	c #576060",
"r.	c #434C4D",
"s.	c #3A4444",
"t.	c #323A3B",
"u.	c #293131",
"v.	c #283030",
"w.	c #343D3D",
"x.	c #606768",
"y.	c #D1D7D8",
"z.	c #A5A6A7",
"A.	c #8F9091",
"B.	c #606162",
"C.	c #454647",
"D.	c #3B3C3D",
"E.	c #363638",
"F.	c #3A3B3C",
"G.	c #57585A",
"H.	c #98999A",
"I.	c #C8C9C9",
"J.	c #A6A7A7",
"K.	c #88898A",
"L.	c #6E7071",
"M.	c #5F6162",
"N.	c #5B5D5E",
"O.	c #6B6C6E",
"P.	c #868787",
"Q.	c #717273",
"            . + @ #             ",
"          $ % & * = - ;         ",
"      > , ' ) ! ~ { ] ^ /       ",
"    ( _ : < [ } | 1 2 3 4 5     ",
"    6 7 8 9 0 a b c d e f g h   ",
"  i j k l m n o p q r s t u v   ",
"  w x y z A B C D E F G H I J   ",
"  K L M N O P Q R S T U V W X Y ",
"Z `  ...+.@.#.D $.%.&.*.=.-.;.>.",
"  ,.'.).!.~.{.].^./.(._.:.<.[.  ",
"  }.|.1.2.3.4.5.6.7.8.9.0.a.b.  ",
"    c.d.e.f.g.h.i.j.k.l.m.n.    ",
"    o.p.q.r.s.t.u.v.w.x.y.@     ",
"      z.A.B.C.D.E.F.G.H.I.      ",
"          J.K.L.M.N.O.          ",
"              P.Q.              "};
