/* XPM */
static char *af2dr_9hhvp[] = {
/* columns rows colors chars-per-pixel */
"32 32 241 2 ",
"   c None",
".  c #D10000",
"X  c #D20000",
"o  c #D30000",
"O  c #D40000",
"+  c #D50000",
"@  c #D60000",
"#  c #D70000",
"$  c #D80000",
"%  c #D90000",
"&  c #DA0000",
"*  c #DB0000",
"=  c #DB0101",
"-  c #DC0000",
";  c #DD0000",
":  c #DD0101",
">  c #DE0101",
",  c #DC0202",
"<  c #DD0202",
"1  c #DD0303",
"2  c #DE0202",
"3  c #DB0404",
"4  c #D80606",
"5  c #DD0404",
"6  c #DD0606",
"7  c #DE0707",
"8  c #DB0808",
"9  c #DE0808",
"0  c #DE0909",
"q  c #DD0A0A",
"w  c #DD0B0B",
"e  c #DE0A0A",
"r  c #DC0C0C",
"t  c #DE0C0C",
"y  c #DF0C0C",
"u  c #DE0F0F",
"i  c #DF0F0F",
"p  c #DF1111",
"a  c #DE1414",
"s  c #DF1414",
"d  c #DF1616",
"f  c #DA1B1B",
"g  c #DF1919",
"h  c #DE1A1A",
"j  c #DF1D1D",
"k  c #DE1E1E",
"l  c #E01212",
"z  c #E01414",
"x  c #E01515",
"c  c #E01616",
"v  c #E01818",
"b  c #E11919",
"n  c #E01A1A",
"m  c #E11A1A",
"M  c #E01B1B",
"N  c #E11B1B",
"B  c #E11C1C",
"V  c #E11E1E",
"C  c #E21E1E",
"Z  c #DF2626",
"A  c #E12020",
"S  c #E12323",
"D  c #E02525",
"F  c #E22424",
"G  c #E22727",
"H  c #E32727",
"J  c #E22828",
"K  c #E32828",
"L  c #E22929",
"P  c #E12C2C",
"I  c #E22C2C",
"U  c #E32C2C",
"Y  c #E32E2E",
"T  c #E13131",
"R  c #E23030",
"E  c #E33030",
"W  c #E43232",
"Q  c #E43333",
"!  c #E43535",
"~  c #E43636",
"^  c #E33838",
"/  c #E23939",
"(  c #E53838",
")  c #E53939",
"_  c #E53A3A",
"`  c #E43C3C",
"'  c #E53E3E",
"]  c #E53F3F",
"[  c #E63F3F",
"{  c #E64242",
"}  c #E44444",
"|  c #E44545",
" . c #E54545",
".. c #E74646",
"X. c #E74848",
"o. c #E54A4A",
"O. c #E74B4B",
"+. c #E74D4D",
"@. c #E64E4E",
"#. c #E74E4E",
"$. c #E84E4E",
"%. c #E75050",
"&. c #E65252",
"*. c #E75353",
"=. c #E75454",
"-. c #E75555",
";. c #E85151",
":. c #E85252",
">. c #E95454",
",. c #E85757",
"<. c #E95959",
"1. c #EA5959",
"2. c #E95D5D",
"3. c #E56464",
"4. c #EA6060",
"5. c #EA6161",
"6. c #EA6363",
"7. c #EB6363",
"8. c #EA6464",
"9. c #EA6565",
"0. c #EA6969",
"q. c #EB6969",
"w. c #EB6B6B",
"e. c #EB6C6C",
"r. c #EB6F6F",
"t. c #EC6E6E",
"y. c #EC6F6F",
"u. c #EC7171",
"i. c #EC7373",
"p. c #EB7676",
"a. c #ED7777",
"s. c #EC7979",
"d. c #EE7B7B",
"f. c #ED7D7D",
"g. c #EE8484",
"h. c #EE8585",
"j. c #EF8686",
"k. c #EE8787",
"l. c #EF8787",
"z. c #EE8C8C",
"x. c #EF8E8E",
"c. c #F08B8B",
"v. c #F08E8E",
"b. c #F08F8F",
"n. c #EF9696",
"m. c #F09090",
"M. c #F09494",
"N. c #F19494",
"B. c #F09595",
"V. c #F19595",
"C. c #F09797",
"Z. c #F09898",
"A. c #F09A9A",
"S. c #F09B9B",
"D. c #F19B9B",
"F. c #F29B9B",
"G. c #F19C9C",
"H. c #F29D9D",
"J. c #F39E9E",
"K. c #F3A2A2",
"L. c #F3A3A3",
"P. c #F2A4A4",
"I. c #F3A5A5",
"U. c #F2A6A6",
"Y. c #F3A6A6",
"T. c #F2A7A7",
"R. c #F3A7A7",
"E. c #F3ABAB",
"W. c #F4A8A8",
"Q. c #F4ABAB",
"!. c #F3ADAD",
"~. c #F4B1B1",
"^. c #F5B5B5",
"/. c #F6B4B4",
"(. c #F4B6B6",
"). c #F5B9B9",
"_. c #F6B8B8",
"`. c #F6B9B9",
"'. c #F6BABA",
"]. c #F6BBBB",
"[. c #F6BCBC",
"{. c #F6BEBE",
"}. c #F7BFBF",
"|. c #F6C0C0",
" X c #F7C2C2",
".X c #F7C3C3",
"XX c #F7C4C4",
"oX c #F7C5C5",
"OX c #F7C6C6",
"+X c #F8C5C5",
"@X c #F7C8C8",
"#X c #F8C8C8",
"$X c #F8C9C9",
"%X c #F8CACA",
"&X c #F8CBCB",
"*X c #F8CCCC",
"=X c #F9CCCC",
"-X c #F8CECE",
";X c #F9CECE",
":X c #F8CFCF",
">X c #F9CFCF",
",X c #F8D2D2",
"<X c #F9D3D3",
"1X c #F9D5D5",
"2X c #F9D6D6",
"3X c #F9D7D7",
"4X c #FAD6D6",
"5X c #FAD7D7",
"6X c #F9D9D9",
"7X c #FAD8D8",
"8X c #FAD9D9",
"9X c #FBD9D9",
"0X c #F9DADA",
"qX c #FADBDB",
"wX c #FADDDD",
"eX c #FBDFDF",
"rX c #FBE0E0",
"tX c #FAE1E1",
"yX c #FBE2E2",
"uX c #FBE4E4",
"iX c #FBE5E5",
"pX c #FBE6E6",
"aX c #FCE5E5",
"sX c #FCE7E7",
"dX c #FCE8E8",
"fX c #FDE8E8",
"gX c #FCE9E9",
"hX c #FCEBEB",
"jX c #FCECEC",
"kX c #FDEDED",
"lX c #FDF0F0",
"zX c #FDF1F1",
"xX c #FDF2F2",
"cX c #FDF3F3",
"vX c #FEF3F3",
"bX c #FEF9F9",
"nX c #FEFAFA",
"mX c #FEFBFB",
"MX c #FFFDFD",
"NX c #FFFEFE",
"BX c white",
/* pixels */
"                            & @ @ &                             ",
"                    & @ & A ] ;.;.{ F - @ &                     ",
"                @ & ] S.cXBXBXBXBXBXBXbXY.} & @                 ",
"              @ ! XXBXBXcXE.f.9.4.s.Y.jXBXBX,X} @               ",
"          & @ k.BXBXY./ & & @ & @ @ & & E S.BXBXn.& &           ",
"        & & ^.BX,XZ o @ & - & & & - - - @ o h [.BX$X3 @         ",
"        @ `.BXL.@ & - - - 5 & - 5 - - - & - & @ x.BX;X&         ",
"      @ b.BXJ.o N.gXgXsX{ @ @XdXgXrXd q wXgXgXXX@ d.BXW.@       ",
"    & ! BX2X@ & zXBXBXBXr.& BXBXBXBXY b BXBXBXBXb o [.BX$.@     ",
"    & rXBXV @ - 2XBXBXBX4.& bXBXBXBXJ c BXBXBXBXJ @ y BXcX&     ",
"  @ ] BXY.@ - - 2XBXBXBX4.& bXBXBXBXJ d BXBXBXBXF & @ k.BX<.@   ",
"  @ `.BXV & - & 2XBXBXBX4.& bXBXBXBXJ d BXBXBXBXF & @ y BX7X&   ",
"  5 BXsX& - - - 2XBXBXBX4.& bXBXBXBXJ c BXBXBXBXF & - @ $XBXp   ",
"& E BXN.@ - - & 2XBXBXBX4.& bXBXBXBXJ c BXBXBXBXF & - @ d.BXX.& ",
"@ ,.BX9.@ 5 - - 2XBXBXBX4.& bXBXBXBXJ c BXBXBXBXF & 5 & X.BXr.@ ",
"@ w.BX;.& - - & 2XBXBXBX4.& bXBXBXBXJ c BXBXBXBXF & - & _ BXk.@ ",
"@ r.BX;.& - - - gXBXBXBX0.& BXBXBXBXY c BXBXBXBXJ & - @ _ BXk.@ ",
"& <.BX4.@ 5 - - E.$X;XrX,.&  X;X$XXXq - wX7X XXXb & 5 & @.BXu.& ",
"& E BXm.@ - - - c b q & & l h p V F ! _ @ & J J p & - @ i.BXX.@ ",
"  5 BXsX& - - & :XbX[.@ - cXBXL.@XbXBX7Xh XXBXBXE & - & XXBXc   ",
"  @  XBXb & & - wXBXBX& Q BXBX`.BX X3 r dXBXp.@.- - & q BXwX&   ",
"  @ } BXS.@ - & dX@XBX;.b.gX,XXX,XcX,XJ.BX*.o & - - @ f.BX4.@   ",
"    & gXBXd @ - BXk.W.kXBXt.[.$XsX2X3.2.BX9.o @ 5 & 5 BXbX&     ",
"    & ] BX;X@ & BXk.Q BXBX5 kX9XBX$Xf j 2XBXZ.r.- @ ^.BX<.@     ",
"      @ S.BXb.@ rXx.& gXY.& rX'.XXBXBXuXd ~.BXBX& 9.BX^.@       ",
"        & +XBXN.@ @ & q - & q q y p h V & & & @ k.BX7X& &       ",
"        & &  XBX`.j @ @ - - - & & & & & & @ 8 Y.BX2Xy &         ",
"          & @ n.BXBXZ.Y & @ & @ & @ @ & Z x.BXBXY.& @           ",
"              @ } 2XBXBXrXZ.r.-.-.0.N.7XBXBXuX*.@               ",
"                @ & X.!.BXBXBXBXBXBXBXBX^.*.& @                 ",
"                    & @ & Y @.4.4.*.E 5 & @                     ",
"                            & @ @ &                             "
};
