/* XPM */
static char *axe14_ies2p[] = {
/* columns rows colors chars-per-pixel */
"16 16 133 2 ",
"   c None",
".  c #D30000",
"X  c #D40000",
"o  c #D50000",
"O  c #D60000",
"+  c #D70000",
"@  c #D80000",
"#  c #D90000",
"$  c #DA0000",
"%  c #DB0000",
"&  c #DA0202",
"*  c #DB0202",
"=  c #DC0000",
"-  c #DD0101",
";  c #DD0707",
":  c #DE0D0D",
">  c #DF1010",
",  c #DF1414",
"<  c #DE1717",
"1  c #E01212",
"2  c #E11C1C",
"3  c #E22A2A",
"4  c #E32C2C",
"5  c #E32E2E",
"6  c #E23030",
"7  c #E33030",
"8  c #E23333",
"9  c #E43030",
"0  c #E43333",
"q  c #E23535",
"w  c #E53434",
"e  c #E43636",
"r  c #E43737",
"t  c #E53737",
"y  c #E23838",
"u  c #E23939",
"i  c #E33E3E",
"p  c #E64141",
"a  c #E44343",
"s  c #E64343",
"d  c #E74343",
"f  c #E64444",
"g  c #E74545",
"h  c #E74747",
"j  c #E75050",
"k  c #E65151",
"l  c #E75252",
"z  c #E75555",
"x  c #E85252",
"c  c #E85353",
"v  c #E95656",
"b  c #E95757",
"n  c #E95858",
"m  c #E95959",
"M  c #E95C5C",
"N  c #EA5D5D",
"B  c #E85E5E",
"V  c #EA5E5E",
"C  c #EA6363",
"Z  c #E96464",
"A  c #EA6565",
"S  c #EB6868",
"D  c #EB6969",
"F  c #EB6A6A",
"G  c #EA6B6B",
"H  c #EA6C6C",
"J  c #EC6F6F",
"K  c #EB7373",
"L  c #EC7474",
"P  c #ED7575",
"I  c #ED7777",
"U  c #EE7979",
"Y  c #EE7C7C",
"T  c #ED7F7F",
"R  c #EE7F7F",
"E  c #F09090",
"W  c #F19999",
"Q  c #F19A9A",
"!  c #F19B9B",
"~  c #F29A9A",
"^  c #F2A2A2",
"/  c #F3A5A5",
"(  c #F3A7A7",
")  c #F4A5A5",
"_  c #F4ABAB",
"`  c #F4B0B0",
"'  c #F5B2B2",
"]  c #F5B5B5",
"[  c #F5B6B6",
"{  c #F4B7B7",
"}  c #F5B7B7",
"|  c #F5B8B8",
" . c #F6B9B9",
".. c #F4BABA",
"X. c #F5BABA",
"o. c #F6BABA",
"O. c #F6BBBB",
"+. c #F5BCBC",
"@. c #F6BDBD",
"#. c #F6BEBE",
"$. c #F6C1C1",
"%. c #F7C3C3",
"&. c #F6C4C4",
"*. c #F7C4C4",
"=. c #F6C5C5",
"-. c #F7C5C5",
";. c #F6C6C6",
":. c #F7C6C6",
">. c #F7C7C7",
",. c #F7C8C8",
"<. c #F8C9C9",
"1. c #F8CBCB",
"2. c #F8CCCC",
"3. c #F9CCCC",
"4. c #F9D5D5",
"5. c #FBD6D6",
"6. c #FAD7D7",
"7. c #FADBDB",
"8. c #FADCDC",
"9. c #FBDDDD",
"0. c #FBDFDF",
"q. c #FAE0E0",
"w. c #FBE1E1",
"e. c #FCE5E5",
"r. c #FCE6E6",
"t. c #FCE9E9",
"y. c #FDEBEB",
"u. c #FDEEEE",
"i. c #FEF6F6",
"p. c #FEF7F7",
"a. c #FEF8F8",
"s. c #FFFEFE",
"d. c white",
/* pixels */
"            4 v v 4             ",
"        Z %.;.O...;.;.F         ",
"    # +.O.u # + . # q ' %.#     ",
"    ] 5.l z > C P > l M 5.+.    ",
"  F r.+ i.d.M d.d.n d.d.# 5.P   ",
"  8.h + u.d.c 8.d.z i.d.# 9 w.  ",
"w 2.# - t.d.l 7.d.c i.d.> + <.h ",
"F ] + - d.d.n u.d.n d.d.2 + ' K ",
"F ] + - / 5.w Q ;.w +.-.1 + ] L ",
"t <.# - Q 3 8 Q R l Z ) : # ;.h ",
"  8.s + d.Q ^ d.8./ +.q + s w.  ",
"  K w.; E a.8.;.d._ 2.s + e.R   ",
"    O.y.< 8 s s U h 8 R 5.+.    ",
"    # O.<.i # + . + u ' ,.#     ",
"        H -.;.O.{ ;.,.L         ",
"            9 M M q             "
};
