/* XPM */
static char *awtwp_7tgwc[] = {
/* columns rows colors chars-per-pixel */
"64 64 138 2 ",
"   c None",
".  c #CD0000",
"X  c #D60000",
"o  c #DC0101",
"O  c #DD0B0B",
"+  c #DF1313",
"@  c #DE1B1B",
"#  c #E01515",
"$  c #E01B1B",
"%  c #DF2323",
"&  c #DF2E2E",
"*  c #E12222",
"=  c #E22C2C",
"-  c #E33535",
";  c #E53C3C",
":  c #E64444",
">  c #E64B4B",
",  c #E75454",
"<  c #E85353",
"1  c #E75B5B",
"2  c #E95A5A",
"3  c #EA6363",
"4  c #EB6A6A",
"5  c #EC7272",
"6  c #ED7B7B",
"7  c #EE8383",
"8  c #EF8C8C",
"9  c #F08686",
"0  c #F08E8E",
"q  c #F09292",
"w  c #F19C9C",
"e  c #F3A0A0",
"r  c #F2A1A1",
"t  c #F3A2A2",
"y  c #F2A3A3",
"u  c #F2A4A4",
"i  c #F3A4A4",
"p  c #F3A5A5",
"a  c #F3A6A6",
"s  c #F2A7A7",
"d  c #F3A7A7",
"f  c #F3A5A5",
"g  c #F3A8A8",
"h  c #F4ABAB",
"j  c #F3ADAD",
"k  c #F3AEAE",
"l  c #F4ADAD",
"z  c #F4AEAE",
"x  c #F3ABAB",
"c  c #F4B0B0",
"v  c #F6B1B1",
"b  c #F5B2B2",
"n  c #F5B3B3",
"m  c #F4B5B5",
"M  c #F5B5B5",
"N  c #F5B6B6",
"B  c #F5B7B7",
"V  c #F5B4B4",
"C  c #F5B8B8",
"Z  c #F6B8B8",
"A  c #F6B9B9",
"S  c #F5BBBB",
"D  c #F6BABA",
"F  c #F6BCBC",
"G  c #F6BDBD",
"H  c #F6BEBE",
"J  c #F7BFBF",
"K  c #F6BCBC",
"L  c #F7C1C1",
"P  c #F6C2C2",
"I  c #F7C3C3",
"U  c #F7C4C4",
"Y  c #F7C6C6",
"T  c #F7C7C7",
"R  c #F7C2C2",
"E  c #F8C4C4",
"W  c #F8C7C7",
"Q  c #F7CBCB",
"!  c #F9CACA",
"~  c #F8CBCB",
"^  c #F8CCCC",
"/  c #F9CDCD",
"(  c #F8CCCC",
")  c #F8D0D0",
"_  c #F9D1D1",
"`  c #F9D3D3",
"'  c #FAD2D2",
"]  c #FAD3D3",
"[  c #FAD4D4",
"{  c #FAD6D6",
"}  c #FAD7D7",
"|  c #F9D4D4",
" . c #FAD9D9",
".. c #FADADA",
"X. c #FADBDB",
"o. c #FADEDE",
"O. c #FBDFDF",
"+. c #FADBDB",
"@. c #FBE0E0",
"#. c #FBE2E2",
"$. c #FBE3E3",
"%. c #FBE4E4",
"&. c #FBE5E5",
"*. c #FBE6E6",
"=. c #FBE7E7",
"-. c #FCE5E5",
";. c #FCE6E6",
":. c #FCE7E7",
">. c #FBE3E3",
",. c #FCE8E8",
"<. c #FDE8E8",
"1. c #FCE9E9",
"2. c #FCEAEA",
"3. c #FDEAEA",
"4. c #FCEBEB",
"5. c #FCEDED",
"6. c #FDEDED",
"7. c #FDEFEF",
"8. c #FCEAEA",
"9. c #FDF1F1",
"0. c #FDF2F2",
"q. c #FEF2F2",
"w. c #FEF3F3",
"e. c #FDF5F5",
"r. c #FEF4F4",
"t. c #FEF5F5",
"y. c #FDF6F6",
"u. c #FEF6F6",
"i. c #FEF7F7",
"p. c #FEF4F4",
"a. c #FEF9F9",
"s. c #FEFBFB",
"d. c #FFFBFB",
"f. c #FEFCFC",
"g. c #FFFDFD",
"h. c #FFFEFE",
"j. c white",
"k. c #FFFFFF",
/* pixels */
"                                                                                                                                ",
"                                                    o o o o o o o o o o o o                                                     ",
"                                            o o o o o o X X X X O X X o X o o o o o                                             ",
"                                        o o o o o X o = > 2 5 6 6 5 4 > = O o o X o o o                                         ",
"                                    o o X X X - 6 n @.j.j.j.j.j.j.j.j.j.j.<.J 7 : X X X o o o                                   ",
"                                o o o X $ 6 ` j.j.j.j.j.j.j.j.j.j.j.j.j.j.j.j.j.j.O.0 = X o o o                                 ",
"                            o o X X % w j.j.j.j.j.j.j.j.j.i.%.O...@.q.j.j.j.j.j.j.j.j.j.z ; X X o o                             ",
"                          o o X O 8 j.j.j.j.j.j.i.N 6 < = + o X X O O = > 5 j 4.j.j.j.j.j.j.a @ o o o                           ",
"                        o o X > @.j.j.j.j.j.D 2 # o o o o o o o o o o X o o o O < i j.j.j.j.j.i.3 X o o o                       ",
"                    o o o o 8 j.j.j.j.j.y - o X o o o O o o o o o o o o o o o o o X = 8 j.j.j.j.j.a O X o o                     ",
"                  o o X X n j.j.j.j.L ; X X o o o o o o o o o o o o o o O o o o o o X X % g j.j.j.j.{ @ o o o                   ",
"                  o o O / j.j.j.j.5 X X o o o o o o o o o o o o o o o o o o o o o o o o X X , q.j.j.j.6.= X o O                 ",
"                o X o ` j.j.j.<.; X X o o o o o o o o o o o o o o o o o o o o o o o o o o o X @ ! j.j.j.i.% X o                 ",
"              o o X Y j.j.j.{ + X X X X X o X X o o o o X X o X o o X X o o o o o o X X o o X X X n j.j.j.<.O X o               ",
"            o o X e j.j.j.` O X * a D D D D D n ; o o o < N D N F D D w O o o o 0 D D D D D N 4 X X h j.j.j./ o o o             ",
"          o o X 2 j.j.j.%.O X X n j.j.j.j.j.j.j.-.o o # j.j.j.j.j.j.j.j.9 X X 3 j.j.j.j.j.j.j.j.= X X J j.j.j.q o o o           ",
"          o o $ j.j.j.j.* X o X L j.j.j.j.j.j.j.<.o X = j.j.j.j.j.j.j.j.w X X 6 j.j.j.j.j.j.j.j.: X X o -.j.j.j.; X o           ",
"        o o X D j.j.j.2 X o o o N j.j.j.j.j.j.j.O.o o $ j.j.j.j.j.j.j.j.q X o 5 j.j.j.j.j.j.j.j.; X o X = j.j.j.-.X o o         ",
"        o X ; j.j.j.n X o o o X N j.j.j.j.j.j.j.O.o o * j.j.j.j.j.j.j.j.0 X X 5 j.j.j.j.j.j.j.j.; o o o X 6 j.j.j.5 X o         ",
"      o o X ` j.j.j.O o o o o o N j.j.j.j.j.j.j.O.o X * j.j.j.j.j.j.j.j.q X X 5 j.j.j.j.j.j.j.j.; o o o o X O.j.j.i.O X o       ",
"      o X ; j.j.j.9 X o o o o o N j.j.j.j.j.j.j.O.o o $ j.j.j.j.j.j.j.j.0 X X 5 j.j.j.j.j.j.j.j.; X o o o O > j.j.j.5 X o       ",
"      o X D j.j.i.o X o o o o o N j.j.j.j.j.j.j.O.o X * a.j.j.j.j.j.j.j.q X X 5 j.j.j.j.j.j.j.j.; o o o o o o [ j.j.-.o o o     ",
"    o X $ j.j.j.q o o O o o o o N j.j.j.j.j.j.j.O.o X * j.j.j.j.j.j.j.j.0 X X 5 j.j.j.j.j.j.j.j.; o o o o o o 2 j.j.j.: o o     ",
"    o X 4 j.j.j.* o o o o o o o N j.j.j.j.j.j.j.O.o X $ j.j.j.j.j.j.j.j.q X X 5 j.j.j.j.j.j.j.j.; X o o o o o o q.j.j.w X o     ",
"    o o D j.j./ X o o o O o o o N j.j.j.j.j.j.j.O.o X * j.j.j.j.j.j.j.j.0 X X 5 j.j.j.j.j.j.j.j.; o o o o o o o y j.j.%.o o o   ",
"  o o O q.j.j.7 X o o o o o o o N j.j.j.j.j.j.j.O.o X $ j.j.j.j.j.j.j.j.q X X 5 j.j.j.j.j.j.j.j.; o o o o o o o < j.j.j.- X o   ",
"  o X ; j.j.j.: o o o o o o o o N j.j.j.j.j.j.j.O.o X * j.j.j.j.j.j.j.j.q X X 5 j.j.j.j.j.j.j.j.; o o o o o o o + j.j.j.4 X o   ",
"  o X 4 j.j.a.# o o o o o o o o N j.j.j.j.j.j.j.O.o o * j.j.j.j.j.j.j.j.0 X X 5 j.j.j.j.j.j.j.j.; o o o o O o o X [ j.j.q X o   ",
"  o X 0 j.j...o o o o o o O o o N j.j.j.j.j.j.j.O.o X * j.j.j.j.j.j.j.j.q X X 5 j.j.j.j.j.j.j.j.; o o o o o o o X z j.j.D X o   ",
"  o o i j.j.D o o o o o o o o o N j.j.j.j.j.j.j.O.o o * j.j.j.j.j.j.j.j.0 X X 5 j.j.j.j.j.j.j.j.; o o o o o o O X q j.j.' o o o ",
"  o o Z j.j.a X o o o O o o o o N j.j.j.j.j.j.j.O.o o * j.j.j.j.j.j.j.j.q X o 5 j.j.j.j.j.j.j.j.; o o o o o o o X 6 j.j.>.o o o ",
"  o o L j.j.w X o o o o o o o o N j.j.j.j.j.j.j.O.o X $ a.j.j.j.j.j.j.j.0 X X 5 j.j.j.j.j.j.j.j.; o o o o o o o X 5 j.j.<.O o o ",
"  o X L j.j.w X o o o o o o o o N j.j.j.j.j.j.j.O.o X * j.j.j.j.j.j.j.j.q X X 5 j.j.j.j.j.j.j.j.; X o o o o o o o 5 j.j.6.O o o ",
"  o o J j.j.e X o o O o o o o o N j.j.j.j.j.j.j.O.o X $ j.j.j.j.j.j.j.j.8 X X 5 j.j.j.j.j.j.j.j.; X o o o O o o o 5 j.j.%.O o o ",
"  o X n j.j.n X o o o O o o o o Y j.j.j.j.j.j.j.q.o X = j.j.j.j.j.j.j.j.w X X 6 j.j.j.j.j.j.j.j.: o o o o o o o o 9 j.j. .o o o ",
"  o X q j.j.! o o o o o o o o o a 4.<.%.4.<.<.6.! o X $ %.<.<.-.<.4.%.<.9 X X 4 <.<.<.<.4.%.<.4.; o o o o o o o o e j.j.L X o   ",
"  o o 6 j.j.6.O o o o o o o o o X o o o o o O o O o o o o o o o o X o X o X o o o O O o o X o o o o o o o o o o X I j.j.i X o   ",
"  o X > j.j.j.= o o o o o o o o o o o o o X o o o o o # o o o o O # # + $ * * $ X X X X O = $ X o o o o o o o o O q.j.j.6 X o   ",
"  o o $ j.j.j.4 o o o o o o o o z i.i.i.i.2 o o o X Z q.q.i.i., W j.j.j.j.j.j.i.O X : D i.j.j.6.0 o o o o o o o - j.j.j.> o o   ",
"  o o o { j.j.v o o o o o o o o I j.j.j.j.J X o X $ j.j.j.j.j.3 / j.j.j.j.j.j.j.X 4 j.j.j.j.j.j.4 X o o o O o o 6 j.j.j.O o o   ",
"    o X 0 j.j.i.o o o o o o o o n j.j.j.j.j.O X X 4 j.j.j.j.j., I j.j.7 ; : : & , j.j.j.j./ @.7 o o o o o o o X ` j.j.J X o     ",
"    o o ; j.j.j.3 X o o o o o o n j.@.{ j.j.2 X X D j.<.{ j.j.2 I j.j.* . X . X 9.j.j.I * o o o o o O o o o X = j.j.j.4 X o     ",
"    o o X O.j.j.` X o o o o o o n j./ 7 j.j.z X # j.j.w q j.j., I j.j.q 1 3 > > j.j.%.X X o o o o o o o o o X a j.j.j.+ X o     ",
"      o X 5 j.j.j.: X o O o o o n j.%.- <.j.a.X > j.j.: 7 j.j.2 I j.j.j.j.j.>.7 j.j.0 X o o o o o o o o o o + j.j.j.g X o       ",
"      o o O i.j.j.{ X X o o o X N j.j.o w j.j.* 7 j.a.X w j.j.2 I j.j.<.@.@.w 7 j.j.0 X o o o o o o o o o X i j.j.j.= o o       ",
"        o X 6 j.j.j.3 X o o o o n j.j.X : j.j.J { j.n X D j.j., I j.j.2 X o X , j.j.O.X X o o o O o o o X - j.j.j.Z X o o       ",
"        o X o q.j.j.j.# o o o X n j.j.O o a.j.j.j.j.< X J j.j.2 I j.j.- . X X X i.j.j.n $ X o o o o o o X >.j.j.j.$ o o         ",
"          o X < j.j.j.! o o o X N j.a.= X n j.j.j.i.X X D j.j.2 I j.j.7 : > : & 3 j.j.j.i.J ` 5 o o o o w j.j.j.7 X o           ",
"          o o o v j.j.j.q X X o J j.j.= X 2 j.j.j.h X X ! j.j.2 W j.j.j.j.j.j.j.X 6 j.j.j.j.j.j.< o X 4 j.j.j...X o o           ",
"            o o O <.j.j.j.6 X X N a.j.= X O q.j.j.> X o F j.j.2 { j.j.j.j.j.j.j.o X , ! j.j.j.j.w X > j.j.j.j.= X o             ",
"              o X = j.j.j.j.6 X O = = o o o # * * o o o $ * * # - ; ; ; ; ; ; ; O o X o = : : O X , j.j.j.j.2 X o o             ",
"              o o X > j.j.j.j.q X X o o o O X X o o o o o o o o X X X X X X o o o o o o X X X X 4 j.j.j.j.5 X o o               ",
"                o o X , j.j.j.j.D @ X X o o o o o o o o o o o o o o o o o o o o o o o o o X X w j.j.j.j.7 X o o                 ",
"                  o o X > j.j.j.j.q.3 X o o o o o o o o o o o o o o o o o o o o o o o o X : O.j.j.j.j.5 X X o                   ",
"                    o o X - >.j.j.j.j.I : X X X o o o o o o o o o O o o o o o o o X X = a j.j.j.j.a., X o o                     ",
"                      o X X O g j.j.j.j.j.J 2 O o X o o O o o o o o o o o o X X o : h j.j.j.j.j.Y % X o o                       ",
"                        o o o o 2 -.j.j.j.j.j.%.w , * X X X X X o o X X o @ > 0 ..j.j.j.j.j.a.6 o o o o                         ",
"                            o o o O 7 i.j.j.j.j.j.j.j...N w 7 6 6 9 q g ` a.j.j.j.j.j.j.j.w * X o o                             ",
"                              o o o X # 6 ..j.j.j.j.j.j.j.j.j.j.j.j.j.j.j.j.j.j.j.j.<.0 = X X o o                               ",
"                                  o o o X X > q ..j.j.j.j.j.j.j.j.j.j.j.j.j.j.@.i 2 O X X o o                                   ",
"                                      o o o X o X = 2 0 h J / { [ ` W z 8 3 ; o o X o o o                                       ",
"                                          o o o o X X X X o o o o o o o X X o X o o o                                           ",
"                                                o o o o o o o o o o o o o o o o                                                 ",
"                                                                                                                                "
};
